 http://www.imdb.com/title/tt0120102/

Source: Seven.Years.in.Tibet.1997.720p.BluRay.DTS.x264-ESiR

Subs: Arabic, Bosnian, Brazilian, Bulgarian, Croatian, Czech, Danish, Dutch, English, Farsi-Persian, Finnish, French, Greek, Hebrew, Hungarian, Indonesian, Italian, Norwegian, Polish, Portuguese, Romanian, Serbian (Cyrilic), Serbian (Latin), Slovakian, Slovenian, Spanish, Swedish, Turkish and Vietnamese.

Sample and Screens included.

General
Complete name                    : Seven Years in Tibet-720p MP4 AAC x264 BRRip 1997-CC.mp4
Format                           : MPEG-4
Format profile                   : Base Media
Codec ID                         : isom
File size                        : 2.83 GiB
Duration                         : 2h 16mn
Overall bit rate                 : 2 980 Kbps
Encoded date                     : UTC 2012-07-09 14:54:30

Video
ID                               : 1
Format                           : AVC
Format/Info                      : Advanced Video Codec
Format profile                   : High@L3.1
Format settings, CABAC           : Yes
Format settings, ReFrames        : 5 frames
Codec ID                         : avc1
Codec ID/Info                    : Advanced Video Coding
Duration                         : 2h 16mn
Bit rate mode                    : Variable
Bit rate                         : 2 593 Kbps
Nominal bit rate                 : 2 580 Kbps
Maximum bit rate                 : 14.0 Mbps
Width                            : 1 280 pixels
Height                           : 528 pixels
Display aspect ratio             : 2.40:1
Frame rate mode                  : Variable
Frame rate                       : 23.976 fps
Minimum frame rate               : 15.873 fps
Maximum frame rate               : 24.390 fps
Resolution                       : 24 bits
Colorimetry                      : 4:2:0
Scan type                        : Progressive
Bits/(Pixel*Frame)               : 0.160
Stream size                      : 2.46 GiB (87%)
Writing library                  : x264 core 112

Audio
ID                               : 2
Format                           : AAC
Format/Info                      : Advanced Audio Codec
Format version                   : Version 4
Format profile                   : LC
Format settings, SBR             : No
Codec ID                         : 40
Duration                         : 2h 16mn
Bit rate mode                    : Variable
Bit rate                         : 384 Kbps
Maximum bit rate                 : 811 Kbps
Channel(s)                       : 6 channels
Channel positions                : Front: L C R, Rear: L R, LFE
Sampling rate                    : 48.0 KHz
Resolution                       : 16 bits
Stream size                      : 374 MiB (13%)
Language                         : English

Enjoy...

Requested by cmptrluvr's. ( more coming up )